<svg width="42" height="43" viewBox="0 0 42 43" fill="none" xmlns="http://www.w3.org/2000/svg">
<path d="M18.7296 8.97579C22.9869 8.55919 28.497 9.10047 30.7472 13.2665C29.5309 11.4663 27.4022 10.5297 25.3162 10.2499C23.2226 9.99405 21.0997 10.1281 19.055 10.6452C18.943 10.6728 18.8266 10.6773 18.7128 10.6586C18.599 10.6398 18.4903 10.5981 18.3931 10.536C18.2959 10.4739 18.2123 10.3928 18.1475 10.2974C18.0826 10.2021 18.0378 10.0946 18.0157 9.98138C17.9937 9.86819 17.9948 9.75167 18.0191 9.63895C18.0435 9.52622 18.0904 9.41961 18.1572 9.32558C18.2239 9.23154 18.3091 9.15207 18.4075 9.09194C18.5059 9.03181 18.6155 8.99229 18.7296 8.97579Z" fill="#8C8C8C"/>
<path d="M25.8416 31.179L29.1865 29.4C29.6547 29.1563 30.0685 28.8201 30.4029 28.4118C30.7606 27.9942 30.9934 27.4844 31.0746 26.9406C31.1558 26.3969 31.0822 25.8412 30.8621 25.3374C30.0388 23.4408 29.1036 21.5948 28.0614 19.8091C28.0614 19.8091 27.2586 17.8751 24.7408 17.7352C23.451 17.6666 22.1659 17.5285 20.891 17.3217C20.3993 17.2381 19.8944 17.2832 19.4253 17.4524C19.0263 17.5885 18.6783 17.8431 18.4279 18.1822L17.7559 19.131L14.2619 11.8663C14.1246 11.5605 13.9002 11.302 13.6168 11.123C13.3334 10.944 13.0036 10.8525 12.6685 10.8598C11.5251 10.9176 11.3001 11.4679 11.1055 11.9514C10.9108 12.435 11.0781 13.3199 11.5525 14.1591C12.0268 14.9984 17.3909 25.8391 17.3909 25.8391C17.4072 25.8479 17.4201 25.8618 17.4274 25.8787C17.841 26.7484 17.5156 27.6819 16.5851 27.685H12.0816C11.9101 27.7171 11.7468 27.7827 11.6008 27.8781C11.4547 27.9735 11.329 28.0968 11.2307 28.2408C11.1324 28.3849 11.0635 28.5469 11.0279 28.7177C10.9923 28.8884 10.9908 29.0645 11.0233 29.2358C11.1298 30.1785 12.191 30.5799 12.8479 30.738C13.3679 30.8658 13.8848 31.0056 14.3987 31.1668C15.5391 31.5256 17.3788 32.1064 18.805 32.5626C21.04 33.2741 23.1048 32.5443 24.0718 32.1004C24.8655 31.7385 25.4614 31.3979 25.6743 31.2732L25.8416 31.179Z" stroke="#8C8C8C" stroke-width="1.5" stroke-miterlimit="10" stroke-linecap="round" stroke-linejoin="round"/>
</svg>